<svg xmlns="http://www.w3.org/2000/svg" viewBox="0 0 1200 214" role="img" aria-label="AI researcher, always exploring something new">
  <defs><linearGradient id="ga" gradientUnits="userSpaceOnUse" x1="0" y1="0" x2="640" y2="0" spreadMethod="repeat"><stop offset="0" stop-color="#22d3ee"/><stop offset=".33" stop-color="#818cf8"/><stop offset=".66" stop-color="#e879f9"/><stop offset="1" stop-color="#22d3ee"/><animateTransform attributeName="gradientTransform" type="translate" from="0 0" to="640 0" dur="5s" repeatCount="indefinite"/></linearGradient><radialGradient id="o0"><stop offset="0" stop-color="#7c3aed" stop-opacity=".5"/><stop offset="1" stop-color="#7c3aed" stop-opacity="0"/></radialGradient><radialGradient id="o1"><stop offset="0" stop-color="#db2777" stop-opacity=".32"/><stop offset="1" stop-color="#db2777" stop-opacity="0"/></radialGradient>
    <pattern id="dots" width="28" height="28" patternUnits="userSpaceOnUse"><circle cx="2" cy="2" r="1.2" fill="#fff" fill-opacity=".07"/></pattern>
    <clipPath id="card"><rect width="1200" height="214" rx="18"/></clipPath>
  </defs>
  <style>.e{fill:none;stroke-width:2;stroke-linecap:round;stroke-dasharray:1;animation:grow 9s ease-out infinite backwards}@keyframes grow{0%{stroke-dashoffset:1;opacity:1}8%{stroke-dashoffset:0;opacity:1}78%{stroke-dashoffset:0;opacity:1}88%,100%{stroke-dashoffset:0;opacity:0}}.n{stroke-width:2.5;transform-box:fill-box;transform-origin:center;animation:node 9s ease-out infinite backwards}@keyframes node{0%{opacity:0;transform:scale(.2)}3%{opacity:1;transform:scale(1.25)}6%{transform:scale(1)}72%{opacity:1;transform:scale(1)}82%,100%{opacity:0;transform:scale(1)}}.halo{transform-box:fill-box;transform-origin:center;animation:halo 9s ease-in-out infinite backwards}@keyframes halo{0%{opacity:0;transform:scale(.4)}6%{opacity:.35;transform:scale(1)}20%{opacity:.08;transform:scale(1.5)}34%{opacity:.3;transform:scale(1)}48%{opacity:.08;transform:scale(1.5)}62%{opacity:.3;transform:scale(1)}72%,100%{opacity:0;transform:scale(1.4)}}.ping{fill:none;stroke-width:2;transform-box:fill-box;transform-origin:center;animation:ping 2.4s ease-out infinite}@keyframes ping{0%{opacity:.8;transform:scale(1)}100%{opacity:0;transform:scale(3.2)}}@media (prefers-reduced-motion:reduce){*{animation:none!important}.nomo{display:none}}</style>
  <g clip-path="url(#card)">
    <rect width="1200" height="214" fill="#070910"/><circle cx="160" cy="42.8" r="240" fill="url(#o0)"><animate attributeName="cx" values="160;230;160" dur="12s" repeatCount="indefinite"/></circle><circle cx="900" cy="214" r="240" fill="url(#o1)"><animate attributeName="cx" values="900;800;900" dur="14s" repeatCount="indefinite"/></circle>
    <rect width="1200" height="214" fill="url(#dots)"/>
    <text x="56" y="102" font-family="'Segoe UI', 'Helvetica Neue', Helvetica, Arial, sans-serif" font-size="44" font-weight="800" fill="url(#ga)">AI researcher</text>
    <text x="58" y="136" font-family="'Segoe UI', 'Helvetica Neue', Helvetica, Arial, sans-serif" font-size="19" fill="#a5b4fc">always exploring something new</text><path d="M452 107C521 107 521 58 590 58" pathLength="1" class="e" stroke="url(#ga)" style="animation-delay:0.3s"/><path d="M452 107C532 107 532 110 612 110" pathLength="1" class="e" stroke="url(#ga)" style="animation-delay:0.39s"/><path d="M452 107C519 107 519 160 586 160" pathLength="1" class="e" stroke="url(#ga)" style="animation-delay:0.48s"/><path d="M590 58C667 58 667 34 744 34" pathLength="1" class="e" stroke="url(#ga)" style="animation-delay:1.19s"/><path d="M590 58C675 58 675 80 760 80" pathLength="1" class="e" stroke="url(#ga)" style="animation-delay:0.92s"/><path d="M612 110C701 110 701 118 790 118" pathLength="1" class="e" stroke="url(#ga)" style="animation-delay:1.01s"/><path d="M586 160C664 160 664 150 742 150" pathLength="1" class="e" stroke="url(#ga)" style="animation-delay:1.1s"/><path d="M586 160C673 160 673 188 760 188" pathLength="1" class="e" stroke="url(#ga)" style="animation-delay:1.19s"/><path d="M744 34C832 34 832 30 920 30" pathLength="1" class="e" stroke="url(#ga)" style="animation-delay:1.54s"/><path d="M744 34C823 34 823 60 902 60" pathLength="1" class="e" stroke="url(#ga)" style="animation-delay:1.63s"/><path d="M760 80C845 80 845 92 930 92" pathLength="1" class="e" stroke="url(#ga)" style="animation-delay:1.72s"/><path d="M790 118C876 118 876 122 962 122" pathLength="1" class="e" stroke="url(#ga)" style="animation-delay:1.81s"/><path d="M790 118C867 118 867 152 944 152" pathLength="1" class="e" stroke="url(#ga)" style="animation-delay:1.54s"/><path d="M742 150C825 150 825 172 908 172" pathLength="1" class="e" stroke="url(#ga)" style="animation-delay:1.63s"/><path d="M760 188C845 188 845 194 930 194" pathLength="1" class="e" stroke="url(#ga)" style="animation-delay:1.72s"/><path d="M920 30C1008 30 1008 40 1096 40" pathLength="1" class="e" stroke="url(#ga)" style="animation-delay:2.43s"/><path d="M930 92C1006 92 1006 78 1082 78" pathLength="1" class="e" stroke="url(#ga)" style="animation-delay:2.16s"/><path d="M930 92C1029 92 1029 106 1128 106" pathLength="1" class="e" stroke="url(#ga)" style="animation-delay:2.25s"/><path d="M962 122C1040 122 1040 138 1118 138" pathLength="1" class="e" stroke="url(#ga)" style="animation-delay:2.34s"/><path d="M944 152C1009 152 1009 164 1074 164" pathLength="1" class="e" stroke="url(#ga)" style="animation-delay:2.43s"/><path d="M908 172C1003 172 1003 186 1098 186" pathLength="1" class="e" stroke="url(#ga)" style="animation-delay:2.16s"/><circle cx="590" cy="58" r="4.5" class="n" fill="#070910" stroke="#a5b4fc" style="animation-delay:0.8s"/><circle cx="612" cy="110" r="4.5" class="n" fill="#070910" stroke="#a5b4fc" style="animation-delay:0.89s"/><circle cx="586" cy="160" r="4.5" class="n" fill="#070910" stroke="#a5b4fc" style="animation-delay:0.98s"/><circle cx="744" cy="34" r="4.5" class="n" fill="#070910" stroke="#a5b4fc" style="animation-delay:1.69s"/><circle cx="760" cy="80" r="4.5" class="n" fill="#070910" stroke="#a5b4fc" style="animation-delay:1.42s"/><circle cx="790" cy="118" r="4.5" class="n" fill="#070910" stroke="#a5b4fc" style="animation-delay:1.51s"/><circle cx="742" cy="150" r="4.5" class="n" fill="#070910" stroke="#a5b4fc" style="animation-delay:1.6s"/><circle cx="760" cy="188" r="4.5" class="n" fill="#070910" stroke="#a5b4fc" style="animation-delay:1.69s"/><circle cx="920" cy="30" r="4.5" class="n" fill="#070910" stroke="#a5b4fc" style="animation-delay:2.04s"/><circle cx="902" cy="60" r="11" class="halo" fill="#e879f9" style="animation-delay:2.13s"/><circle cx="902" cy="60" r="5.5" class="n" fill="#e879f9" stroke="#e879f9" style="animation-delay:2.13s"/><circle cx="930" cy="92" r="4.5" class="n" fill="#070910" stroke="#a5b4fc" style="animation-delay:2.22s"/><circle cx="962" cy="122" r="4.5" class="n" fill="#070910" stroke="#a5b4fc" style="animation-delay:2.31s"/><circle cx="944" cy="152" r="4.5" class="n" fill="#070910" stroke="#a5b4fc" style="animation-delay:2.04s"/><circle cx="908" cy="172" r="4.5" class="n" fill="#070910" stroke="#a5b4fc" style="animation-delay:2.13s"/><circle cx="930" cy="194" r="11" class="halo" fill="#22d3ee" style="animation-delay:2.22s"/><circle cx="930" cy="194" r="5.5" class="n" fill="#22d3ee" stroke="#22d3ee" style="animation-delay:2.22s"/><circle cx="1096" cy="40" r="11" class="halo" fill="#e879f9" style="animation-delay:2.93s"/><circle cx="1096" cy="40" r="5.5" class="n" fill="#e879f9" stroke="#e879f9" style="animation-delay:2.93s"/><circle cx="1082" cy="78" r="11" class="halo" fill="#22d3ee" style="animation-delay:2.66s"/><circle cx="1082" cy="78" r="5.5" class="n" fill="#22d3ee" stroke="#22d3ee" style="animation-delay:2.66s"/><circle cx="1128" cy="106" r="11" class="halo" fill="#e879f9" style="animation-delay:2.75s"/><circle cx="1128" cy="106" r="5.5" class="n" fill="#e879f9" stroke="#e879f9" style="animation-delay:2.75s"/><circle cx="1118" cy="138" r="11" class="halo" fill="#22d3ee" style="animation-delay:2.84s"/><circle cx="1118" cy="138" r="5.5" class="n" fill="#22d3ee" stroke="#22d3ee" style="animation-delay:2.84s"/><circle cx="1074" cy="164" r="11" class="halo" fill="#e879f9" style="animation-delay:2.93s"/><circle cx="1074" cy="164" r="5.5" class="n" fill="#e879f9" stroke="#e879f9" style="animation-delay:2.93s"/><circle cx="1098" cy="186" r="11" class="halo" fill="#22d3ee" style="animation-delay:2.66s"/><circle cx="1098" cy="186" r="5.5" class="n" fill="#22d3ee" stroke="#22d3ee" style="animation-delay:2.66s"/>
    <circle cx="452" cy="107" r="10" class="ping nomo" stroke="#22d3ee"/><circle cx="452" cy="107" r="10" class="ping nomo" stroke="#22d3ee" style="animation-delay:1.2s"/>
    <circle cx="452" cy="107" r="10" fill="#fff"/>
  </g>
  <rect x="1" y="1" width="1198" height="212" rx="18" fill="none" stroke="url(#ga)" stroke-width="2"/>
</svg>
